<svg width="1584" height="396" viewBox="0 0 1584 396" fill="none" xmlns="http://www.w3.org/2000/svg">
<rect width="1584" height="396" fill="#F5F5F5"/>
<g id="Awesome banner" clip-path="url(#clip0_0_1)">
<rect width="1584" height="396" fill="url(#paint0_linear_0_1)"/>
<ellipse id="Ellipse 2" cx="323" cy="64" rx="285" ry="288" fill="url(#paint1_linear_0_1)" fill-opacity="0.1"/>
<g id="copyright">
<path d="M75.95 334.52L72.30 334.52L72.30 311.16L77.20 311.16L83.70 330.04Q83.60 329.02 83.50 327.62Q83.41 326.23 83.33 324.79Q83.25 323.35 83.25 322.23L83.25 311.16L86.90 311.16L86.90 334.52L82 334.52L75.57 315.64Q75.63 316.57 75.73 317.88Q75.82 319.19 75.89 320.57Q75.95 321.94 75.95 323.10L75.95 334.52M98.80 334.84Q96.46 334.84 94.67 333.96Q92.88 333.08 91.89 331.53Q90.90 329.98 90.90 327.93Q90.90 325.78 92.13 324.18Q93.36 322.58 95.34 322.17L95.34 322.10Q93.65 321.75 92.61 320.38Q91.57 319 91.57 317.11Q91.57 315.26 92.48 313.85Q93.39 312.44 95.02 311.64Q96.66 310.84 98.80 310.84Q100.94 310.84 102.59 311.64Q104.24 312.44 105.15 313.85Q106.06 315.26 106.06 317.11Q106.06 319 105.01 320.38Q103.95 321.75 102.26 322.10L102.26 322.17Q104.24 322.58 105.47 324.18Q106.70 325.78 106.70 327.93Q106.70 329.98 105.71 331.53Q104.72 333.08 102.93 333.96Q101.14 334.84 98.80 334.84M98.80 320.73Q100.30 320.73 101.23 319.82Q102.16 318.90 102.16 317.46Q102.16 315.99 101.23 315.08Q100.30 314.17 98.80 314.17Q97.30 314.17 96.37 315.08Q95.44 315.99 95.44 317.46Q95.44 318.90 96.37 319.82Q97.30 320.73 98.80 320.73M98.80 331.45Q100.56 331.45 101.68 330.42Q102.80 329.40 102.80 327.74Q102.80 326.04 101.68 325Q100.56 323.96 98.80 323.96Q97.04 323.96 95.92 325Q94.80 326.04 94.80 327.74Q94.80 329.40 95.92 330.42Q97.04 331.45 98.80 331.45M114.35 334.52L110.70 334.52L110.70 311.16L115.60 311.16L122.10 330.04Q122 329.02 121.90 327.62Q121.81 326.23 121.73 324.79Q121.65 323.35 121.65 322.23L121.65 311.16L125.30 311.16L125.30 334.52L120.40 334.52L113.97 315.64Q114.03 316.57 114.13 317.88Q114.22 319.19 114.29 320.57Q114.35 321.94 114.35 323.10" fill="white" fill-opacity="0.9"/>
<path d="M161.48 325.24L151.24 325.24L151.24 322.68L161.48 322.68" fill="white" fill-opacity="0.9"/>
<path d="M195.02 334.84Q191.82 334.84 189.96 333.05Q188.11 331.26 188.11 328.12L188.11 317.56Q188.11 314.42 189.96 312.63Q191.82 310.84 195.02 310.84Q198.15 310.84 200.01 312.65Q201.87 314.46 201.87 317.56L198.99 317.56Q198.99 315.58 197.95 314.50Q196.91 313.43 195.02 313.43Q193.13 313.43 192.06 314.50Q190.99 315.58 190.99 317.56L190.99 328.12Q190.99 330.10 192.06 331.18Q193.13 332.25 195.02 332.25Q196.91 332.25 197.95 331.18Q198.99 330.10 198.99 328.12L201.87 328.12Q201.87 331.22 200.01 333.03Q198.15 334.84 195.02 334.84" fill="white" fill-opacity="0.9"/>
<path d="M213.96 334.84Q210.83 334.84 209 333.02Q207.18 331.19 207.18 327.80L207.18 317.88Q207.18 314.49 209 312.66Q210.83 310.84 213.96 310.84Q217.10 310.84 218.92 312.66Q220.75 314.49 220.75 317.85L220.75 327.80Q220.75 331.19 218.92 333.02Q217.10 334.84 213.96 334.84M213.96 332.25Q215.85 332.25 216.86 331.18Q217.87 330.10 217.87 328.12L217.87 317.56Q217.87 315.58 216.86 314.50Q215.85 313.43 213.96 313.43Q212.11 313.43 211.08 314.50Q210.06 315.58 210.06 317.56L210.06 328.12Q210.06 330.10 211.08 331.18Q212.11 332.25 213.96 332.25" fill="white" fill-opacity="0.9"/>
<path d="M228.65 334.52L225.87 334.52L225.87 311.16L230.12 311.16L233.10 321.27L236.20 311.16L240.46 311.16L240.46 334.52L237.67 334.52L237.67 323.48Q237.67 321.91 237.72 319.88Q237.77 317.85 237.87 315.77Q237.96 313.69 238.09 312.02L234.31 324.09L231.82 324.09L228.20 312.31Q228.46 314.68 228.55 317.50Q228.65 320.31 228.65 323.48" fill="white" fill-opacity="0.9"/>
<path d="M247.85 334.52L245.07 334.52L245.07 311.16L249.32 311.16L252.30 321.27L255.40 311.16L259.66 311.16L259.66 334.52L256.87 334.52L256.87 323.48Q256.87 321.91 256.92 319.88Q256.97 317.85 257.07 315.77Q257.16 313.69 257.29 312.02L253.51 324.09L251.02 324.09L247.40 312.31Q247.66 314.68 247.75 317.50Q247.85 320.31 247.85 323.48" fill="white" fill-opacity="0.9"/>
<path d="M271.56 334.84Q268.30 334.84 266.57 333.03Q264.84 331.22 264.84 328.12L264.84 311.16L267.72 311.16L267.72 328.12Q267.72 330.04 268.67 331.16Q269.61 332.28 271.56 332.28Q273.48 332.28 274.44 331.16Q275.40 330.04 275.40 328.12L275.40 311.16L278.28 311.16L278.28 328.12Q278.28 331.26 276.57 333.05Q274.86 334.84 271.56 334.84" fill="white" fill-opacity="0.9"/>
<path d="M286.83 334.52L284.04 334.52L284.04 311.16L287.88 311.16L295.02 331.16Q294.95 330.36 294.87 329.19Q294.79 328.02 294.75 326.73Q294.70 325.43 294.70 324.28L294.70 311.16L297.48 311.16L297.48 334.52L293.64 334.52L286.54 314.52Q286.60 315.29 286.67 316.46Q286.73 317.62 286.78 318.92Q286.83 320.22 286.83 321.40" fill="white" fill-opacity="0.9"/>
<path d="M316.20 334.52L303.72 334.52L303.72 331.90L308.49 331.90L308.49 313.78L303.72 313.78L303.72 311.16L316.20 311.16L316.20 313.78L311.43 313.78L311.43 331.90L316.20 331.90" fill="white" fill-opacity="0.9"/>
<path d="M330.60 334.52L327.72 334.52L327.72 313.78L321.32 313.78L321.32 311.16L337 311.16L337 313.78L330.60 313.78" fill="white" fill-opacity="0.9"/>
<path d="M349.80 334.52L346.92 334.52L346.92 325.78L339.88 311.16L342.95 311.16L347.50 320.76Q347.88 321.56 348.11 322.12Q348.33 322.68 348.39 322.94Q348.46 322.68 348.70 322.12Q348.94 321.56 349.32 320.76L353.87 311.16L356.84 311.16L349.80 325.78" fill="white" fill-opacity="0.9"/>
<path d="M382.83 334.52L380.04 334.52L380.04 311.16L383.88 311.16L391.02 331.16Q390.95 330.36 390.87 329.19Q390.79 328.02 390.75 326.73Q390.70 325.43 390.70 324.28L390.70 311.16L393.48 311.16L393.48 334.52L389.64 334.52L382.54 314.52Q382.60 315.29 382.67 316.46Q382.73 317.62 382.78 318.92Q382.83 320.22 382.83 321.40" fill="white" fill-opacity="0.9"/>
<path d="M405.96 334.84Q402.83 334.84 401 333.02Q399.18 331.19 399.18 327.80L399.18 317.88Q399.18 314.49 401 312.66Q402.83 310.84 405.96 310.84Q409.10 310.84 410.92 312.66Q412.75 314.49 412.75 317.85L412.75 327.80Q412.75 331.19 410.92 333.02Q409.10 334.84 405.96 334.84M405.96 332.25Q407.85 332.25 408.86 331.18Q409.87 330.10 409.87 328.12L409.87 317.56Q409.87 315.58 408.86 314.50Q407.85 313.43 405.96 313.43Q404.11 313.43 403.08 314.50Q402.06 315.58 402.06 317.56L402.06 328.12Q402.06 330.10 403.08 331.18Q404.11 332.25 405.96 332.25" fill="white" fill-opacity="0.9"/>
<path d="M424.55 334.52L418.51 334.52L418.51 311.16L424.55 311.16Q426.83 311.16 428.47 312.02Q430.12 312.89 431.03 314.46Q431.95 316.02 431.95 318.17L431.95 327.48Q431.95 329.62 431.03 331.21Q430.12 332.79 428.47 333.66Q426.83 334.52 424.55 334.52M421.39 313.72L421.39 331.96L424.55 331.96Q426.67 331.96 427.87 330.78Q429.07 329.59 429.07 327.48L429.07 318.17Q429.07 316.09 427.87 314.90Q426.67 313.72 424.55 313.72" fill="white" fill-opacity="0.9"/>
<path d="M451.40 334.52L437.96 334.52L437.96 311.16L451.40 311.16L451.40 313.78L440.81 313.78L440.81 321.02L450.28 321.02L450.28 323.58L440.81 323.58L440.81 331.90L451.40 331.90" fill="white" fill-opacity="0.9"/>
<path d="M463.69 334.84Q460.30 334.84 458.28 333.05Q456.27 331.26 456.27 328.12L459.15 328.12Q459.15 330.07 460.39 331.18Q461.64 332.28 463.69 332.28Q465.67 332.28 466.86 331.13Q468.04 329.98 468.04 328.12Q468.04 326.71 467.29 325.67Q466.54 324.63 465.13 324.25L461.58 323.26Q459.37 322.62 458.11 320.97Q456.84 319.32 456.84 317.08Q456.84 315.22 457.67 313.82Q458.51 312.41 460.01 311.62Q461.51 310.84 463.47 310.84Q465.45 310.84 466.97 311.62Q468.49 312.41 469.35 313.80Q470.22 315.19 470.22 317.02L467.34 317.02Q467.34 315.42 466.25 314.41Q465.16 313.40 463.47 313.40Q461.77 313.40 460.71 314.41Q459.66 315.42 459.66 317.02Q459.66 318.30 460.35 319.21Q461.03 320.12 462.28 320.47L465.93 321.50Q468.27 322.14 469.56 323.91Q470.86 325.69 470.86 328.12Q470.86 331.19 468.91 333.02Q466.95 334.84 463.69 334.84" fill="white" fill-opacity="0.9"/>
</g>
<path d="M82.48 197.64L72.40 197.64L72.40 180.12L82.48 180.12L82.48 182.09L74.54 182.09L74.54 187.51L81.64 187.51L81.64 189.43L74.54 189.43L74.54 195.67L82.48 195.67" fill="white" fill-opacity="0.7"/>
<path d="M88.77 197.64L86.61 197.64L86.61 184.44L88.77 184.44L88.77 186.96L88.79 186.96Q88.96 185.64 89.87 184.92Q90.78 184.20 92.30 184.20Q94.29 184.20 95.46 185.42Q96.64 186.65 96.64 188.76L96.64 197.64L94.48 197.64L94.48 189.14Q94.48 187.63 93.72 186.83Q92.97 186.02 91.67 186.02Q90.33 186.02 89.55 186.86Q88.77 187.70 88.77 189.24" fill="white" fill-opacity="0.7"/>
<path d="M105.23 197.88Q103.26 197.88 102.08 196.56Q100.89 195.24 100.89 192.98L100.89 189.12Q100.89 186.84 102.06 185.52Q103.24 184.20 105.23 184.20Q106.72 184.20 107.69 184.94Q108.66 185.69 108.86 186.96L108.88 186.96L108.83 183.96L108.83 180.12L110.99 180.12L110.99 197.64L108.83 197.64L108.83 195.12L108.81 195.12Q108.64 196.42 107.68 197.15Q106.72 197.88 105.23 197.88M105.95 196.01Q107.30 196.01 108.06 195.17Q108.83 194.33 108.83 192.84L108.83 189.24Q108.83 187.75 108.06 186.91Q107.30 186.07 105.95 186.07Q104.58 186.07 103.82 186.78Q103.05 187.49 103.05 189.12L103.05 192.96Q103.05 194.57 103.82 195.29Q104.58 196.01 105.95 196.01" fill="white" fill-opacity="0.7"/>
<path d="M117.57 201.96L115.41 201.96L115.41 184.44L117.57 184.44L117.57 186.96L117.59 186.96Q117.76 185.66 118.72 184.93Q119.68 184.20 121.17 184.20Q123.16 184.20 124.34 185.51Q125.51 186.82 125.51 189.10L125.51 192.96Q125.51 195.24 124.34 196.56Q123.16 197.88 121.17 197.88Q119.68 197.88 118.72 197.14Q117.76 196.39 117.59 195.12L117.52 195.12L117.57 198.12L117.57 201.96M120.45 196.01Q121.82 196.01 122.58 195.29Q123.35 194.57 123.35 192.96L123.35 189.12Q123.35 187.49 122.58 186.78Q121.82 186.07 120.45 186.07Q119.13 186.07 118.35 186.91Q117.57 187.75 117.57 189.24L117.57 192.84Q117.57 194.33 118.35 195.17Q119.13 196.01 120.45 196.01" fill="white" fill-opacity="0.7"/>
<path d="M134.80 197.83Q132.42 197.83 131.02 196.44Q129.62 195.05 129.62 192.55L129.62 189.53Q129.62 187.01 131.01 185.63Q132.40 184.25 134.80 184.25Q137.20 184.25 138.59 185.63Q139.98 187.01 139.98 189.53L139.98 192.55Q139.98 195.05 138.58 196.44Q137.18 197.83 134.80 197.83M134.80 195.91Q136.22 195.91 137.02 195.12Q137.82 194.33 137.82 192.79L137.82 189.29Q137.82 187.75 137.02 186.96Q136.22 186.17 134.80 186.17Q133.41 186.17 132.59 186.96Q131.78 187.75 131.78 189.29L131.78 192.79Q131.78 194.33 132.59 195.12Q133.41 195.91 134.80 195.91" fill="white" fill-opacity="0.7"/>
<path d="M155.32 197.64L144.04 197.64L144.04 195.67L148.72 195.67L148.72 186.41L144.52 186.41L144.52 184.44L150.88 184.44L150.88 195.67L155.32 195.67L155.32 197.64M149.56 182.06Q148.77 182.06 148.31 181.66Q147.86 181.25 147.86 180.55Q147.86 179.83 148.31 179.41Q148.77 178.99 149.56 178.99Q150.35 178.99 150.81 179.41Q151.26 179.83 151.26 180.55Q151.26 181.25 150.81 181.66Q150.35 182.06 149.56 182.06" fill="white" fill-opacity="0.7"/>
<path d="M160.77 197.64L158.61 197.64L158.61 184.44L160.77 184.44L160.77 186.96L160.79 186.96Q160.96 185.64 161.87 184.92Q162.78 184.20 164.30 184.20Q166.29 184.20 167.46 185.42Q168.64 186.65 168.64 188.76L168.64 197.64L166.48 197.64L166.48 189.14Q166.48 187.63 165.72 186.83Q164.97 186.02 163.67 186.02Q162.33 186.02 161.55 186.86Q160.77 187.70 160.77 189.24" fill="white" fill-opacity="0.7"/>
<path d="M183.16 197.64L179.32 197.64Q177.69 197.64 176.70 196.69Q175.72 195.74 175.72 194.16L175.72 186.41L171.93 186.41L171.93 184.44L175.72 184.44L175.72 180.72L177.88 180.72L177.88 184.44L183.28 184.44L183.28 186.41L177.88 186.41L177.88 194.16Q177.88 194.83 178.28 195.25Q178.67 195.67 179.32 195.67L183.16 195.67" fill="white" fill-opacity="0.7"/>
<path d="M192.93 197.83L191.87 197.83Q189.66 197.83 188.45 196.84Q187.24 195.84 187.24 194.02L189.40 194.02Q189.40 194.93 190.05 195.44Q190.70 195.96 191.87 195.96L192.93 195.96Q194.13 195.96 194.79 195.43Q195.45 194.90 195.45 193.94Q195.45 192.24 193.89 192.02L190.24 191.50Q188.90 191.30 188.15 190.38Q187.41 189.46 187.41 187.94Q187.41 186.22 188.60 185.23Q189.78 184.25 191.87 184.25L192.93 184.25Q194.85 184.25 196.06 185.20Q197.27 186.14 197.37 187.68L195.18 187.68Q195.14 186.98 194.52 186.53Q193.91 186.07 192.93 186.07L191.87 186.07Q190.77 186.07 190.14 186.58Q189.52 187.08 189.52 187.94Q189.52 189.34 190.79 189.53L194.20 190.01Q197.56 190.49 197.56 193.94Q197.56 195.79 196.35 196.81Q195.14 197.83 192.93 197.83" fill="white" fill-opacity="0.7"/>
<path d="M221.32 197.64L219.16 197.64L219.16 188.21L215.32 188.21L215.32 186.24L219.16 186.24L219.16 183.48Q219.16 181.92 220.14 181.02Q221.13 180.12 222.86 180.12L226.72 180.12L226.72 182.09L222.86 182.09Q221.32 182.09 221.32 183.48L221.32 186.24L226.72 186.24L226.72 188.21L221.32 188.21" fill="white" fill-opacity="0.7"/>
<path d="M235.60 197.83Q233.22 197.83 231.82 196.44Q230.42 195.05 230.42 192.55L230.42 189.53Q230.42 187.01 231.81 185.63Q233.20 184.25 235.60 184.25QNaN 184.25 239.39 185.63Q240.78 187.01 240.78 189.53L240.78 192.55Q240.78 195.05 239.38 196.44Q237.98 197.83 235.60 197.83M235.60 195.91Q237.02 195.91 237.82 195.12Q238.62 194.33 238.62 192.79L238.62 189.29Q238.62 187.75 237.82 186.96Q237.02 186.17 235.60 186.17Q234.21 186.17 233.39 186.96Q232.58 187.75 232.58 189.29L232.58 192.79Q232.58 194.33 233.39 195.12Q234.21 195.91 235.60 195.91" fill="white" fill-opacity="0.7"/>
<path d="M247.65 197.64L245.49 197.64L245.49 184.44L247.65 184.44L247.65 186.96L247.70 186.96Q247.86 185.69 248.78 184.94Q249.69 184.20 251.22 184.20Q253.29 184.20 254.40 185.44Q255.52 186.67 255.52 188.95L255.52 190.08L253.36 190.08L253.36 188.95Q253.36 186.07 250.55 186.07Q249.14 186.07 248.39 186.89Q247.65 187.70 247.65 189.24" fill="white" fill-opacity="0.7"/>
<path d="M279.33 197.83L278.27 197.83Q276.06 197.83 274.85 196.84Q273.64 195.84 273.64 194.02L275.80 194.02Q275.80 194.93 276.45 195.44Q277.10 195.96 278.27 195.96L279.33 195.96Q280.53 195.96 281.19 195.43Q281.85 194.90 281.85 193.94Q281.85 192.24 280.29 192.02L276.64 191.50Q275.30 191.30 274.55 190.38Q273.81 189.46 273.81 187.94Q273.81 186.22 275 185.23Q276.18 184.25 278.27 184.25L279.33 184.25Q281.25 184.25 282.46 185.20Q283.67 186.14 283.77 187.68L281.58 187.68Q281.54 186.98 280.92 186.53Q280.31 186.07 279.33 186.07L278.27 186.07Q277.17 186.07 276.54 186.58Q275.92 187.08 275.92 187.94Q275.92 189.34 277.19 189.53L280.60 190.01Q283.96 190.49 283.96 193.94Q283.96 195.79 282.75 196.81Q281.54 197.83 279.33 197.83" fill="white" fill-opacity="0.7"/>
<path d="M292.53 201.96L290.27 201.96L292.22 196.82L287.30 184.44L289.62 184.44L292.74 192.60Q292.94 193.08 293.10 193.61Q293.27 194.14 293.34 194.52Q293.42 194.14 293.58 193.61Q293.75 193.08 293.92 192.60L296.82 184.44L299.10 184.44" fill="white" fill-opacity="0.7"/>
<path d="M308.13 197.83L307.07 197.83Q304.86 197.83 303.65 196.84Q302.44 195.84 302.44 194.02L304.60 194.02Q304.60 194.93 305.25 195.44Q305.90 195.96 307.07 195.96L308.13 195.96Q309.33 195.96 309.99 195.43Q310.65 194.90 310.65 193.94Q310.65 192.24 309.09 192.02L305.44 191.50Q304.10 191.30 303.35 190.38Q302.61 189.46 302.61 187.94Q302.61 186.22 303.80 185.23Q304.98 184.25 307.07 184.25L308.13 184.25Q310.05 184.25 311.26 185.20Q312.47 186.14 312.57 187.68L310.38 187.68Q310.34 186.98 309.72 186.53Q309.11 186.07 308.13 186.07L307.07 186.07Q305.97 186.07 305.34 186.58Q304.72 187.08 304.72 187.94Q304.72 189.34 305.99 189.53L309.40 190.01Q312.76 190.49 312.76 193.94Q312.76 195.79 311.55 196.81Q310.34 197.83 308.13 197.83" fill="white" fill-opacity="0.7"/>
<path d="M327.16 197.64L323.32 197.64Q321.69 197.64 320.70 196.69Q319.72 195.74 319.72 194.16L319.72 186.41L315.93 186.41L315.93 184.44L319.72 184.44L319.72 180.72L321.88 180.72L321.88 184.44L327.28 184.44L327.28 186.41L321.88 186.41L321.88 194.16Q321.88 194.83 322.28 195.25Q322.67 195.67 323.32 195.67L327.16 195.67" fill="white" fill-opacity="0.7"/>
<path d="M336.40 197.88Q334.07 197.88 332.64 196.48Q331.22 195.07 331.22 192.60L331.22 189.48Q331.22 187.01 332.64 185.60Q334.07 184.20 336.40 184.20Q337.96 184.20 339.12 184.82Q340.29 185.45 340.94 186.58Q341.58 187.70 341.58 189.24L341.58 191.59L333.33 191.59L333.33 192.84Q333.33 194.30 334.17 195.16Q335.01 196.01 336.40 196.01Q337.60 196.01 338.38 195.54Q339.16 195.07 339.33 194.28L341.49 194.28Q341.27 195.94 339.88 196.91Q338.49 197.88 336.40 197.88M333.33 189.24L333.33 189.91L339.47 189.91L339.47 189.24Q339.47 187.68 338.67 186.83Q337.86 185.98 336.40 185.98Q334.94 185.98 334.13 186.83Q333.33 187.68 333.33 189.24" fill="white" fill-opacity="0.7"/>
<path d="M347.06 197.64L345.04 197.64L345.04 184.44L346.91 184.44L346.91 186.19L346.96 186.19Q347.08 185.30 347.67 184.75Q348.26 184.20 349.17 184.20Q350.03 184.20 350.63 184.70Q351.23 185.21 351.50 186.07L351.52 186.07Q351.69 185.21 352.28 184.70Q352.86 184.20 353.78 184.20Q355.05 184.20 355.80 185.15Q356.56 186.10 356.56 187.61L356.56 197.64L354.54 197.64L354.54 187.58Q354.54 186.79 354.16 186.32Q353.78 185.86 353.10 185.86Q352.46 185.86 352.07 186.31Q351.69 186.77 351.69 187.56L351.69 197.64L349.91 197.64L349.91 187.58Q349.91 186.79 349.53 186.32Q349.14 185.86 348.50 185.86Q347.82 185.86 347.44 186.31Q347.06 186.77 347.06 187.56" fill="white" fill-opacity="0.7"/>
<path d="M379.58 197.88Q377.30 197.88 375.93 196.52Q374.56 195.17 374.56 192.84L374.56 184.44L376.72 184.44L376.72 192.84Q376.72 194.28 377.49 195.13Q378.26 195.98 379.58 195.98Q380.92 195.98 381.70 195.13Q382.48 194.28 382.48 192.84L382.48 184.44L384.64 184.44L384.64 192.84Q384.64 195.17 383.25 196.52Q381.86 197.88 379.58 197.88" fill="white" fill-opacity="0.7"/>
<path d="M399.16 197.64L395.32 197.64Q393.69 197.64 392.70 196.69Q391.72 195.74 391.72 194.16L391.72 186.41L387.93 186.41L387.93 184.44L391.72 184.44L391.72 180.72L393.88 180.72L393.88 184.44L399.28 184.44L399.28 186.41L393.88 186.41L393.88 194.16Q393.88 194.83 394.28 195.25Q394.67 195.67 395.32 195.67L399.16 195.67" fill="white" fill-opacity="0.7"/>
<path d="M414.52 197.64L403.24 197.64L403.24 195.67L407.92 195.67L407.92 186.41L403.72 186.41L403.72 184.44L410.08 184.44L410.08 195.67L414.52 195.67L414.52 197.64M408.76 182.06Q407.97 182.06 407.51 181.66Q407.06 181.25 407.06 180.55Q407.06 179.83 407.51 179.41Q407.97 178.99 408.76 178.99Q409.55 178.99 410.01 179.41Q410.46 179.83 410.46 180.55Q410.46 181.25 410.01 181.66Q409.55 182.06 408.76 182.06" fill="white" fill-opacity="0.7"/>
<path d="M428.80 197.64L424.72 197.64Q422.97 197.64 421.92 196.62Q420.88 195.60 420.88 193.92L420.88 182.09L416.32 182.09L416.32 180.12L423.04 180.12L423.04 193.92Q423.04 194.74 423.50 195.20Q423.95 195.67 424.72 195.67L428.80 195.67" fill="white" fill-opacity="0.7"/>
<path d="M443.32 197.64L432.04 197.64L432.04 195.67L436.72 195.67L436.72 186.41L432.52 186.41L432.52 184.44L438.88 184.44L438.88 195.67L443.32 195.67L443.32 197.64M437.56 182.06Q436.77 182.06 436.31 181.66Q435.86 181.25 435.86 180.55Q435.86 179.83 436.31 179.41Q436.77 178.99 437.56 178.99Q438.35 178.99 438.81 179.41Q439.26 179.83 439.26 180.55Q439.26 181.25 438.81 181.66Q438.35 182.06 437.56 182.06" fill="white" fill-opacity="0.7"/>
<path d="M456.76 197.64L452.92 197.64Q451.29 197.64 450.30 196.69Q449.32 195.74 449.32 194.16L449.32 186.41L445.53 186.41L445.53 184.44L449.32 184.44L449.32 180.72L451.48 180.72L451.48 184.44L456.88 184.44L456.88 186.41L451.48 186.41L451.48 194.16Q451.48 194.83 451.88 195.25Q452.27 195.67 452.92 195.67L456.76 195.67" fill="white" fill-opacity="0.7"/>
<path d="M472.12 197.64L460.84 197.64L460.84 195.67L465.52 195.67L465.52 186.41L461.32 186.41L461.32 184.44L467.68 184.44L467.68 195.67L472.12 195.67L472.12 197.64M466.36 182.06Q465.57 182.06 465.11 181.66Q464.66 181.25 464.66 180.55Q464.66 179.83 465.11 179.41Q465.57 178.99 466.36 178.99Q467.15 178.99 467.61 179.41Q468.06 179.83 468.06 180.55Q468.06 181.25 467.61 181.66Q467.15 182.06 466.36 182.06" fill="white" fill-opacity="0.7"/>
<path d="M480.40 197.88Q478.07 197.88 476.64 196.48Q475.22 195.07 475.22 192.60L475.22 189.48Q475.22 187.01 476.64 185.60Q478.07 184.20 480.40 184.20Q481.96 184.20 483.12 184.82Q484.29 185.45 484.94 186.58Q485.58 187.70 485.58 189.24L485.58 191.59L477.33 191.59L477.33 192.84Q477.33 194.30 478.17 195.16Q479.01 196.01 480.40 196.01Q481.60 196.01 482.38 195.54Q483.16 195.07 483.33 194.28L485.49 194.28Q485.27 195.94 483.88 196.91Q482.49 197.88 480.40 197.88M477.33 189.24L477.33 189.91L483.47 189.91L483.47 189.24Q483.47 187.68 482.67 186.83Q481.86 185.98 480.40 185.98Q478.94 185.98 478.13 186.83Q477.33 187.68 477.33 189.24" fill="white" fill-opacity="0.7"/>
<path d="M495.33 197.83L494.27 197.83Q492.06 197.83 490.85 196.84Q489.64 195.84 489.64 194.02L491.80 194.02Q491.80 194.93 492.45 195.44Q493.10 195.96 494.27 195.96L495.33 195.96Q496.53 195.96 497.19 195.43Q497.85 194.90 497.85 193.94Q497.85 192.24 496.29 192.02L492.64 191.50Q491.30 191.30 490.55 190.38Q489.81 189.46 489.81 187.94Q489.81 186.22 491 185.23Q492.18 184.25 494.27 184.25L495.33 184.25Q497.25 184.25 498.46 185.20Q499.67 186.14 499.77 187.68L497.58 187.68Q497.54 186.98 496.92 186.53Q496.31 186.07 495.33 186.07L494.27 186.07Q493.17 186.07 492.54 186.58Q491.92 187.08 491.92 187.94Q491.92 189.34 493.19 189.53L496.60 190.01Q499.96 190.49 499.96 193.94Q499.96 195.79 498.75 196.81Q497.54 197.83 495.33 197.83" fill="white" fill-opacity="0.7"/>
<path d="M509.20 197.88Q508.31 197.88 507.77 197.35Q507.23 196.82 507.23 195.98Q507.23 195.10 507.77 194.54Q508.31 193.99 509.20 193.99Q510.09 193.99 510.63 194.54Q511.17 195.10 511.17 195.98Q511.17 196.82 510.63 197.35Q510.09 197.88 509.20 197.88" fill="white" fill-opacity="0.7"/>
<path d="M538 197.88Q535.67 197.88 534.24 196.48Q532.82 195.07 532.82 192.60L532.82 189.48Q532.82 187.01 534.24 185.60Q535.67 184.20 538 184.20Q539.56 184.20 540.72 184.82Q541.89 185.45 542.54 186.58Q543.18 187.70 543.18 189.24L543.18 191.59L534.93 191.59L534.93 192.84Q534.93 194.30 535.77 195.16Q536.61 196.01 538 196.01Q539.20 196.01 539.98 195.54Q540.76 195.07 540.93 194.28L543.09 194.28Q542.87 195.94 541.48 196.91Q540.09 197.88 538 197.88M534.93 189.24L534.93 189.91L541.07 189.91L541.07 189.24Q541.07 187.68 540.27 186.83Q539.46 185.98 538 185.98Q536.54 185.98 535.73 186.83Q534.93 187.68 534.93 189.24" fill="white" fill-opacity="0.7"/>
<path d="M552.40 197.88Q551.51 197.88 550.97 197.35Q550.43 196.82 550.43 195.98Q550.43 195.10 550.97 194.54Q551.51 193.99 552.40 193.99Q553.29 193.99 553.83 194.54Q554.37 195.10 554.37 195.98Q554.37 196.82 553.83 197.35Q553.29 197.88 552.40 197.88" fill="white" fill-opacity="0.7"/>
<path d="M567.16 201.96L563.46 201.96L563.46 199.99L567.18 199.99Q568.31 199.99 568.96 199.36Q569.61 198.72 569.61 197.64L569.61 196.44L569.66 194.28L569.58 194.28Q569.39 195.46 568.46 196.09Q567.52 196.73 566.10 196.73Q564.06 196.73 562.89 195.43Q561.71 194.14 561.71 191.88L561.71 189.10Q561.71 186.84 562.89 185.52Q564.06 184.20 566.10 184.20Q567.52 184.20 568.46 184.87Q569.39 185.54 569.58 186.72L569.63 186.72L569.63 184.44L571.77 184.44L571.77 197.64Q571.77 199.63 570.53 200.80Q569.30 201.96 567.16 201.96M566.75 194.93Q568.10 194.93 568.86 194.09Q569.63 193.25 569.63 191.76L569.63 189.24Q569.63 187.75 568.86 186.91Q568.10 186.07 566.75 186.07Q565.38 186.07 564.63 186.86Q563.87 187.66 563.87 189L563.87 192Q563.87 193.34 564.63 194.14Q565.38 194.93 566.75 194.93" fill="white" fill-opacity="0.7"/>
<path d="M581.20 197.88Q580.31 197.88 579.77 197.35Q579.23 196.82 579.23 195.98Q579.23 195.10 579.77 194.54Q580.31 193.99 581.20 193.99Q582.09 193.99 582.63 194.54Q583.17 195.10 583.17 195.98Q583.17 196.82 582.63 197.35Q582.09 197.88 581.20 197.88" fill="white" fill-opacity="0.7"/>
<path d="M592.79 197.64L590.63 197.64L590.63 180.12L592.79 180.12L592.79 187.61L598.41 187.61L598.41 180.12L600.57 180.12L600.57 197.64L598.41 197.64L598.41 189.58L592.79 189.58" fill="white" fill-opacity="0.7"/>
<path d="M610 197.88Q607.67 197.88 606.24 196.48Q604.82 195.07 604.82 192.60L604.82 189.48Q604.82 187.01 606.24 185.60Q607.67 184.20 610 184.20Q611.56 184.20 612.72 184.82Q613.89 185.45 614.54 186.58Q615.18 187.70 615.18 189.24L615.18 191.59L606.93 191.59L606.93 192.84Q606.93 194.30 607.77 195.16Q608.61 196.01 610 196.01Q611.20 196.01 611.98 195.54Q612.76 195.07 612.93 194.28L615.09 194.28Q614.87 195.94 613.48 196.91Q612.09 197.88 610 197.88M606.93 189.24L606.93 189.91L613.07 189.91L613.07 189.24Q613.07 187.68 612.27 186.83Q611.46 185.98 610 185.98Q608.54 185.98 607.73 186.83Q606.93 187.68 606.93 189.24" fill="white" fill-opacity="0.7"/>
<path d="M623.25 197.88Q621.21 197.88 620.01 196.74Q618.81 195.60 618.81 193.75Q618.81 192.53 619.36 191.62Q619.91 190.70 620.90 190.19Q621.88 189.67 623.15 189.67L627.23 189.67L627.23 188.64Q627.23 186.07 624.42 186.07Q623.18 186.07 622.41 186.53Q621.64 186.98 621.59 187.80L619.43 187.80Q619.55 186.24 620.88 185.22Q622.22 184.20 624.42 184.20Q626.82 184.20 628.11 185.35Q629.39 186.50 629.39 188.57L629.39 197.64L627.26 197.64L627.26 195.24L627.21 195.24Q627.02 196.46 625.98 197.17Q624.95 197.88 623.25 197.88M623.78 196.06Q625.36 196.06 626.30 195.29Q627.23 194.52 627.23 193.20L627.23 191.35L623.39 191.35Q622.34 191.35 621.68 191.99Q621.02 192.62 621.02 193.68Q621.02 194.78 621.75 195.42Q622.48 196.06 623.78 196.06" fill="white" fill-opacity="0.7"/>
<path d="M644.80 197.64L640.72 197.64Q638.97 197.64 637.92 196.62Q636.88 195.60 636.88 193.92L636.88 182.09L632.32 182.09L632.32 180.12L639.04 180.12L639.04 193.92Q639.04 194.74 639.50 195.20Q639.95 195.67 640.72 195.67L644.80 195.67" fill="white" fill-opacity="0.7"/>
<path d="M658.36 197.64L654.52 197.64Q652.89 197.64 651.90 196.69Q650.92 195.74 650.92 194.16L650.92 186.41L647.13 186.41L647.13 184.44L650.92 184.44L650.92 180.72L653.08 180.72L653.08 184.44L658.48 184.44L658.48 186.41L653.08 186.41L653.08 194.16Q653.08 194.83 653.48 195.25Q653.87 195.67 654.52 195.67L658.36 195.67" fill="white" fill-opacity="0.7"/>
<path d="M664.77 197.64L662.61 197.64L662.61 180.12L664.77 180.12L664.77 186.96L664.79 186.96Q664.96 185.64 665.87 184.92Q666.78 184.20 668.30 184.20Q670.29 184.20 671.46 185.42Q672.64 186.65 672.64 188.76L672.64 197.64L670.48 197.64L670.48 189.12Q670.48 187.63 669.72 186.83Q668.97 186.02 667.67 186.02Q666.33 186.02 665.55 186.86Q664.77 187.70 664.77 189.24" fill="white" fill-opacity="0.7"/>
<path d="M90.80 137.02Q81.20 137.02 75.63 131.45Q70.06 125.88 70.06 115.71L70.06 86.24Q70.06 76.16 75.63 70.59Q81.20 65.02 90.80 65.02Q100.40 65.02 105.97 70.54Q111.54 76.06 111.54 86.24L111.54 115.71Q111.54 125.88 105.97 131.45Q100.40 137.02 90.80 137.02M90.80 128.57Q96.18 128.57 99.10 125.50Q102.03 122.43 102.03 116.67L102.03 85.28Q102.03 79.61 99.15 76.54Q96.27 73.47 90.80 73.47Q85.33 73.47 82.45 76.54Q79.57 79.61 79.57 85.28L79.57 116.67Q79.57 122.43 82.50 125.50Q85.42 128.57 90.80 128.57M136.78 136.06L127.86 136.06L127.86 65.98L140.14 65.98L161.07 125.12Q160.78 122.62 160.54 118.92Q160.30 115.23 160.16 111.24Q160.02 107.26 160.02 103.71L160.02 65.98L169.04 65.98L169.04 136.06L156.66 136.06L135.92 76.92Q136.11 79.42 136.30 83.02Q136.50 86.62 136.64 90.56Q136.78 94.49 136.78 97.95L136.78 136.06M206.38 137.02Q196.02 137.02 189.87 131.60Q183.73 126.17 183.73 116.67L193.23 116.67Q193.23 122.24 196.78 125.40Q200.34 128.57 206.38 128.57Q212.14 128.57 215.55 125.36Q218.96 122.14 218.96 116.76Q218.96 112.73 216.75 109.71Q214.54 106.68 210.51 105.63L200.14 102.84Q193.33 100.92 189.34 95.88Q185.36 90.84 185.36 83.93Q185.36 78.27 187.90 74Q190.45 69.72 195.06 67.37Q199.66 65.02 205.71 65.02Q211.86 65.02 216.51 67.37Q221.17 69.72 223.76 73.95Q226.35 78.17 226.35 83.74L216.94 83.74Q216.94 79.13 213.82 76.25Q210.70 73.37 205.71 73.37Q200.72 73.37 197.70 76.25Q194.67 79.13 194.67 83.74Q194.67 87.48 196.69 90.03Q198.70 92.57 202.35 93.63L213.01 96.51Q220.21 98.43 224.24 103.85Q228.27 109.28 228.27 116.76Q228.27 122.91 225.58 127.47Q222.90 132.03 217.95 134.52Q213.01 137.02 206.38 137.02M264.37 137.02Q254.67 137.02 248.96 131.60Q243.25 126.17 243.25 116.67L243.25 85.28Q243.25 75.87 248.96 70.44Q254.67 65.02 264.37 65.02Q273.97 65.02 279.68 70.49Q285.39 75.96 285.39 85.28L275.89 85.28Q275.89 79.61 272.82 76.54Q269.74 73.47 264.37 73.47Q258.90 73.47 255.82 76.54Q252.75 79.61 252.75 85.28L252.75 116.67Q252.75 122.43 255.82 125.50Q258.90 128.57 264.37 128.57Q269.74 128.57 272.82 125.50Q275.89 122.43 275.89 116.67L285.39 116.67Q285.39 126.08 279.68 131.55Q273.97 137.02 264.37 137.02M310.45 136.06L300.94 136.06L300.94 65.98L310.45 65.98L310.45 95.55L331.95 95.55L331.95 65.98L341.46 65.98L341.46 136.06L331.95 136.06L331.95 104.19L310.45 104.19L310.45 136.06M400.11 136.06L359.31 136.06L359.31 65.98L400.11 65.98L400.11 74.52L368.72 74.52L368.72 95.36L396.75 95.36L396.75 103.61L368.72 103.61L368.72 127.52L400.11 127.52L400.11 136.06M434.86 136.06L416.05 136.06L416.05 65.98L434.86 65.98Q441.68 65.98 446.72 68.62Q451.76 71.26 454.54 76.01Q457.33 80.76 457.33 87.20L457.33 114.75Q457.33 121.18 454.54 125.98Q451.76 130.78 446.72 133.42Q441.68 136.06 434.86 136.06M425.55 74.43L425.55 127.61L434.86 127.61Q440.91 127.61 444.37 124.16Q447.82 120.70 447.82 114.75L447.82 87.20Q447.82 81.24 444.37 77.84Q440.91 74.43 434.86 74.43L425.55 74.43M551.60 137.02Q541.71 137.02 536.38 131.55Q531.06 126.08 531.06 116.67L531.06 65.98L540.56 65.98L540.56 116.67Q540.56 122.24 543.30 125.40Q546.03 128.57 551.60 128.57Q557.07 128.57 559.90 125.40Q562.74 122.24 562.74 116.67L562.74 65.98L572.24 65.98L572.24 116.67Q572.24 126.17 566.91 131.60Q561.58 137.02 551.60 137.02MNaN 136.06L604.50 136.06L604.50 74.62L585.49 74.62L585.49 65.98L632.91 65.98L632.91 74.62LNaN 74.62LNaN 136.06M685.90 136.06L647.70 136.06L647.70 127.42LNaN 127.42LNaN 74.62L647.70 74.62L647.70 65.98L685.90 65.98L685.90 74.62L671.60 74.62L671.60 127.42L685.90 127.42L685.90 136.06M748.59 136.06L707.89 136.06L707.89 65.98L717.39 65.98L717.39 127.42L748.59 127.42L748.59 136.06M801.10 136.06L762.90 136.06L762.90 127.42L777.20 127.42L777.20 74.62L762.90 74.62L762.90 65.98L801.10 65.98L801.10 74.62L786.80 74.62L786.80 127.42L801.10 127.42L801.10 136.06M844.40 136.06L834.90 136.06L834.90 74.62L815.89 74.62L815.89 65.98L863.31 65.98L863.31 74.62L844.40 74.62L844.40 136.06MNaN 136.06L892.50 136.06L892.50 110.04L871.47 65.98L881.55 65.98L894.51 93.63Q895.66 96.12 896.38 98.14Q897.10 100.16 897.30 101.02Q897.58 100.16 898.30 98.14Q899.02 96.12 900.27 93.63L913.14 65.98L922.93 65.98LNaN 110.04" fill="url(#paint2_linear_0_1)"/>
<g id="Group 1">
<rect id="Rectangle 1" x="26" y="168" width="12" height="184" rx="5" fill="url(#paint3_linear_0_1)" fill-opacity="0.9"/>
</g>
<g id="Group 1_2">
<rect id="Rectangle 2" x="26" y="38" width="12" height="119" rx="5" fill="url(#paint4_linear_0_1)" fill-opacity="0.9"/>
</g>
<ellipse id="Ellipse 1" cx="148.5" cy="573" rx="215.5" ry="214" fill="url(#paint5_linear_0_1)" fill-opacity="0.4"/>
<rect id="Rectangle 3" x="1229" y="48" width="300" height="300" rx="25" fill="#FFFBFB" fill-opacity="0.9"/>
<g id="placeholder-logo"><g transform="translate(1229,48) translate(0.0,60.0) scale(1.2000)"><g fill="#666666">
  <path d="m88.05,27.65c-3.15,4 -3.2,51.2 -0.05,54.35c2.75,2.75 71.7,3.15 74.45,0.45c2.85,-2.9 2.3,-53.85 -0.65,-55.9c-1.95,-1.35 -7.15,-1.55 -36.95,-1.55l-34.7,0l-2.1,2.65zm69.45,3.35c0.65,0 1,8.6 1,23.75l0,23.75l-33,0l-33,0l-0.25,-23c-0.15,-12.6 -0.1,-23.45 0.15,-24.1c0.35,-0.85 8.9,-1.05 32.25,-0.75c17.55,0.2 32.3,0.35 32.85,0.35z"/>
  <path d="m99.15,37.3c-6.85,7.35 4.25,17.35 11.4,10.25c1.35,-1.35 2.45,-3.65 2.45,-5.05c0,-6.45 -9.35,-9.95 -13.85,-5.2z"/>
  <path d="m135,42.5c-0.7,0.85 -5.25,5.15 -10.1,9.6l-8.85,8.1l-3.2,-3.2l-3.15,-3.15l-6.35,6.3c-5.55,5.5 -6.35,6.75 -6.35,10.05l0,3.8l28.5,0l28.5,0l0,-8.6l0,-8.55l-8.15,-7.7c-9.35,-8.85 -9.15,-8.7 -10.85,-6.65zm7.25,15.2c0.95,0.9 1.75,2.9 1.75,4.45c6.35,-5.05 4.75,-7.15 4.9,-11.55c0.95,0 0,0 0,0l-6.65,7.1z"/>
  <path d="m53.65,110.75c0.1,4.8 0.45,8.65 0.75,8.5c0.35,-0.15 1.3,-0.25 2.1,-0.25c1.1,0 1.5,-1.2 1.5,-4.75l0,-4.75l3.25,5c4.9,7.5 6.2,6.75 6.55,-3.75c0.25,-8.15 0.15,-8.75 -1.7,-8.75c-1.65,0 -2.05,0.8 -2.3,4.75l-0.3,4.75l-2.8,-4.75c-4.85,-8.25 -7.25,-6.9 -7.05,4z"/>
  <path d="m91,108.9c0,9.65 0.3,10.1 6.1,10.1c5.8,0 7.15,-2.65 1.65,-3.2l-3.25,-0.3l-0.3,-6.75c-0.25,-5.95 -0.55,-6.75 -2.25,-6.75c-1.75,0 -1.95,0.7 -1.95,6.9z"/>
  <path d="m151,102.45c0,0.25 1,2.15 2.25,4.2c1.2,2.1 2.45,5.8 2.75,8.25c0.65,5.9 4,6.95 4,1.25c0.05,-2.1 1.25,-5.85 2.95,-8.9l2.9,-5.25l-2.5,0c-1.8,0 -2.8,0.85 -3.75,3.1l-1.3,3.05l-1.25,-3.05c-1.1,-2.6 -6.05,-4.8 -6.05,-2.65z"/>
  <path d="m191,107.45c0,9.05 3.4,8.85 4.25,-0.2c0.45,-5 0.35,-5.25 -1.9,-5.25c-2.2,0 -2.35,0.4 -2.35,5.45z"/>
  <path d="m180.8,104.75c-1.3,5.35 0.65,13.6 3.45,14.35c2.3,0.6 2.75,0.4 2.75,-1.2c0,-1.05 -0.45,-1.9 -1,-1.9c-0.55,0 -1,-1.6 -1,-3.5c0,-1.95 0.45,-3.5 1,-3.5c0.55,0 1,-0.7 1,-1.5c0,-0.85 -0.45,-1.5 -1,-1.5c-0.55,0 -1,-0.7 -1,-1.5c0,-2.1 -3.65,-1.9 -4.2,0.25z"/>
  <path d="m71.55,106.55c-2.2,2.25 -2.05,9.7 0.3,11.8c4.5,4.1 10.15,0.75 10.15,-6.1c0,-4.85 -2,-7.25 -6,-7.25c-1.55,0 -3.55,0.7 -4.45,1.55zm6.25,5.8c0.25,3.05 0,3.65 -1.6,3.65c-2.3,0 -3.25,-2.65 -2.05,-5.85c1.25,-3.35 3.3,-2.1 3.65,2.2z"/>
  <path d="m105.75,106.1c-2.5,1.45 -2.45,9.95 0.1,12.25c4.3,3.9 10.15,0.35 10.15,-6.2c0,-6 -5.15,-9.05 -10.25,-6.05zm6.05,6.25c0.25,3.05 0,3.65 -1.6,3.65c-2.3,0 -3.25,-2.65 -2.05,-5.85c1.25,-3.35 3.3,-2.1 3.65,2.2z"/>
  <path d="m119.2,106.2c-3.8,3.8 -0.4,12.55 4.4,11.35c1.9,-0.45 2.45,-0.3 2.15,0.65c-0.25,0.7 -1.55,1.2 -2.85,1.1c-4.05,-0.3 -5.35,0.45 -3.85,2.25c0.85,1.05 2.6,1.45 5.35,1.25l4.1,-0.3l0.3,-8.75l0.3,-8.75l-4.35,0c-2.4,0 -4.9,0.55 -5.55,1.2zm6.6,4.45c0.4,2.85 -2.15,4.85 -3.75,2.95c-0.9,-1.1 -0.9,-2 -0.05,-3.6c1.35,-2.5 3.4,-2.15 3.8,0.65z"/>
  <path d="m133.55,106.55c-2.2,2.25 -2.05,9.7 0.3,11.8c4.5,4.1 10.15,0.75 10.15,-6.1c0,-4.85 -2,-7.25 -6,-7.25c-1.55,0 -3.55,0.7 -4.45,1.55zm6.25,5.8c0.25,3.05 0,3.65 -1.6,3.65c-2.3,0 -3.25,-2.65 -2.05,-5.85c1.25,-3.35 3.3,-2.1 3.65,2.2z"/>
  <path d="m167.65,106.85c-3.9,4.3 -0.75,13.15 4.7,13.15c2.4,0 5.65,-2.75 5.65,-4.85c0,-1.4 -2.65,-1.55 -3.5,-0.15c-0.95,1.55 -4.5,1.15 -4.5,-0.5c0,-1.1 1.1,-1.5 4,-1.5c3.15,0 4,-0.35 4,-1.8c0,-5.3 -6.85,-8.25 -10.35,-4.35z"/>
  <path d="m191,117.5c0,2.15 0.4,2.6 2.25,2.3c1.5,-0.2 2.25,-1 2.25,-2.3c0,-1.3 -0.75,-2.1 -2.25,-2.3c-1.85,-0.3 -2.25,0.15 -2.25,2.3z"/>
 </g></g></g>
</g>
<defs>
<linearGradient id="paint0_linear_0_1" x1="0" y1="198" x2="1584" y2="198" gradientUnits="userSpaceOnUse">
<stop stop-color="#3D052C"/>
<stop offset="1"/>
</linearGradient>
<linearGradient id="paint1_linear_0_1" x1="323" y1="-224" x2="323" y2="352" gradientUnits="userSpaceOnUse">
<stop stop-color="#28F6F2" stop-opacity="0.4"/>
<stop offset="1" stop-color="#17908E" stop-opacity="0.7"/>
</linearGradient>
<linearGradient id="paint2_linear_0_1" x1="148.5" y1="38" x2="148.5" y2="140" gradientUnits="userSpaceOnUse">
<stop stop-color="white"/>
<stop offset="1" stop-color="#999999"/>
</linearGradient>
<linearGradient id="paint3_linear_0_1" x1="38" y1="260" x2="26" y2="260" gradientUnits="userSpaceOnUse">
<stop stop-color="#D9D9D9"/>
<stop offset="1" stop-color="#737373"/>
</linearGradient>
<linearGradient id="paint4_linear_0_1" x1="38" y1="97.5" x2="26" y2="97.5" gradientUnits="userSpaceOnUse">
<stop stop-color="#D9D9D9"/>
<stop offset="1" stop-color="#737373"/>
</linearGradient>
<linearGradient id="paint5_linear_0_1" x1="27.5" y1="434.5" x2="148.5" y2="787" gradientUnits="userSpaceOnUse">
<stop stop-color="#2E21BC"/>
<stop offset="1" stop-color="#150F56"/>
</linearGradient>
<clipPath id="clip0_0_1">
<rect width="1584" height="396" fill="white"/>
</clipPath>
</defs>
</svg>
